<mxfile host="app.diagrams.net" modified="2024-05-16T23:05:41.670Z" agent="Mozilla/5.0 (Windows NT 10.0; Win64; x64) AppleWebKit/537.36 (KHTML, like Gecko) Chrome/124.0.0.0 Safari/537.36 Edg/124.0.0.0" etag="UN59nZljmFud8byqHG3A" version="24.2.7" type="github">
  <diagram name="PÃ¡gina-1" id="7iLgj8yVfX-rOegeVMUm">
    <mxGraphModel dx="870" dy="516" grid="1" gridSize="10" guides="1" tooltips="1" connect="1" arrows="1" fold="1" page="1" pageScale="1" pageWidth="827" pageHeight="1169" math="0" shadow="0">
      <root>
        <mxCell id="0" />
        <mxCell id="1" parent="0" />
        <mxCell id="y02Fszl-v3UbBaIdAK-8-17" value="Empleado" style="swimlane;fontStyle=1;align=center;verticalAlign=top;childLayout=stackLayout;horizontal=1;startSize=26;horizontalStack=0;resizeParent=1;resizeParentMax=0;resizeLast=0;collapsible=1;marginBottom=0;whiteSpace=wrap;html=1;" vertex="1" parent="1">
          <mxGeometry x="180" y="400" width="160" height="86" as="geometry" />
        </mxCell>
        <mxCell id="y02Fszl-v3UbBaIdAK-8-18" value="+ field: type" style="text;strokeColor=none;fillColor=none;align=left;verticalAlign=top;spacingLeft=4;spacingRight=4;overflow=hidden;rotatable=0;points=[[0,0.5],[1,0.5]];portConstraint=eastwest;whiteSpace=wrap;html=1;" vertex="1" parent="y02Fszl-v3UbBaIdAK-8-17">
          <mxGeometry y="26" width="160" height="26" as="geometry" />
        </mxCell>
        <mxCell id="y02Fszl-v3UbBaIdAK-8-19" value="" style="line;strokeWidth=1;fillColor=none;align=left;verticalAlign=middle;spacingTop=-1;spacingLeft=3;spacingRight=3;rotatable=0;labelPosition=right;points=[];portConstraint=eastwest;strokeColor=inherit;" vertex="1" parent="y02Fszl-v3UbBaIdAK-8-17">
          <mxGeometry y="52" width="160" height="8" as="geometry" />
        </mxCell>
        <mxCell id="y02Fszl-v3UbBaIdAK-8-20" value="+ method(type): type" style="text;strokeColor=none;fillColor=none;align=left;verticalAlign=top;spacingLeft=4;spacingRight=4;overflow=hidden;rotatable=0;points=[[0,0.5],[1,0.5]];portConstraint=eastwest;whiteSpace=wrap;html=1;" vertex="1" parent="y02Fszl-v3UbBaIdAK-8-17">
          <mxGeometry y="60" width="160" height="26" as="geometry" />
        </mxCell>
        <mxCell id="y02Fszl-v3UbBaIdAK-8-21" value="Consultor" style="swimlane;fontStyle=1;align=center;verticalAlign=top;childLayout=stackLayout;horizontal=1;startSize=26;horizontalStack=0;resizeParent=1;resizeParentMax=0;resizeLast=0;collapsible=1;marginBottom=0;whiteSpace=wrap;html=1;" vertex="1" parent="1">
          <mxGeometry x="450" y="400" width="160" height="86" as="geometry" />
        </mxCell>
        <mxCell id="y02Fszl-v3UbBaIdAK-8-22" value="+ field: type" style="text;strokeColor=none;fillColor=none;align=left;verticalAlign=top;spacingLeft=4;spacingRight=4;overflow=hidden;rotatable=0;points=[[0,0.5],[1,0.5]];portConstraint=eastwest;whiteSpace=wrap;html=1;" vertex="1" parent="y02Fszl-v3UbBaIdAK-8-21">
          <mxGeometry y="26" width="160" height="26" as="geometry" />
        </mxCell>
        <mxCell id="y02Fszl-v3UbBaIdAK-8-23" value="" style="line;strokeWidth=1;fillColor=none;align=left;verticalAlign=middle;spacingTop=-1;spacingLeft=3;spacingRight=3;rotatable=0;labelPosition=right;points=[];portConstraint=eastwest;strokeColor=inherit;" vertex="1" parent="y02Fszl-v3UbBaIdAK-8-21">
          <mxGeometry y="52" width="160" height="8" as="geometry" />
        </mxCell>
        <mxCell id="y02Fszl-v3UbBaIdAK-8-24" value="+ method(type): type" style="text;strokeColor=none;fillColor=none;align=left;verticalAlign=top;spacingLeft=4;spacingRight=4;overflow=hidden;rotatable=0;points=[[0,0.5],[1,0.5]];portConstraint=eastwest;whiteSpace=wrap;html=1;" vertex="1" parent="y02Fszl-v3UbBaIdAK-8-21">
          <mxGeometry y="60" width="160" height="26" as="geometry" />
        </mxCell>
        <mxCell id="y02Fszl-v3UbBaIdAK-8-26" value="Pesona" style="swimlane;fontStyle=1;align=center;verticalAlign=top;childLayout=stackLayout;horizontal=1;startSize=26;horizontalStack=0;resizeParent=1;resizeParentMax=0;resizeLast=0;collapsible=1;marginBottom=0;whiteSpace=wrap;html=1;" vertex="1" parent="1">
          <mxGeometry x="300" y="60" width="230" height="300" as="geometry" />
        </mxCell>
        <mxCell id="y02Fszl-v3UbBaIdAK-8-27" value="- DNI:String&lt;div&gt;-Nombre:String&lt;/div&gt;&lt;div&gt;-Apellido:String&lt;/div&gt;&lt;div&gt;-Domicilio:String&lt;/div&gt;&lt;div&gt;-String:Telefono&lt;/div&gt;" style="text;strokeColor=none;fillColor=none;align=left;verticalAlign=top;spacingLeft=4;spacingRight=4;overflow=hidden;rotatable=0;points=[[0,0.5],[1,0.5]];portConstraint=eastwest;whiteSpace=wrap;html=1;" vertex="1" parent="y02Fszl-v3UbBaIdAK-8-26">
          <mxGeometry y="26" width="230" height="94" as="geometry" />
        </mxCell>
        <mxCell id="y02Fszl-v3UbBaIdAK-8-28" value="" style="line;strokeWidth=1;fillColor=none;align=left;verticalAlign=middle;spacingTop=-1;spacingLeft=3;spacingRight=3;rotatable=0;labelPosition=right;points=[];portConstraint=eastwest;strokeColor=inherit;" vertex="1" parent="y02Fszl-v3UbBaIdAK-8-26">
          <mxGeometry y="120" width="230" height="8" as="geometry" />
        </mxCell>
        <mxCell id="y02Fszl-v3UbBaIdAK-8-29" value="+ get DNI():String&lt;div&gt;+set DNI(DNI:String):void&lt;/div&gt;&lt;div&gt;+get Nombrre():String&lt;/div&gt;&lt;div&gt;+set Nombre(Nombre:String):void&lt;/div&gt;&lt;div&gt;+get Apellido():String&lt;/div&gt;&lt;div&gt;+set Apellido(Apellido:String):void&lt;/div&gt;&lt;div&gt;+get Domicilio():String&lt;/div&gt;&lt;div&gt;+set Domicilio(Domilio:String):void&lt;/div&gt;&lt;div&gt;+get Telefono():String&lt;/div&gt;&lt;div&gt;+set Telefono(Telefono:String):void&lt;/div&gt;&lt;div&gt;&lt;br&gt;&lt;/div&gt;" style="text;strokeColor=none;fillColor=none;align=left;verticalAlign=top;spacingLeft=4;spacingRight=4;overflow=hidden;rotatable=0;points=[[0,0.5],[1,0.5]];portConstraint=eastwest;whiteSpace=wrap;html=1;" vertex="1" parent="y02Fszl-v3UbBaIdAK-8-26">
          <mxGeometry y="128" width="230" height="172" as="geometry" />
        </mxCell>
      </root>
    </mxGraphModel>
  </diagram>
</mxfile>
